<svg xmlns="http://www.w3.org/2000/svg" xmlns:xlink="http://www.w3.org/1999/xlink" width="231" height="231"><path fill="#eee" d="M0 0h231v231H0z"/><use xlink:href="#B"/><use xlink:href="#B" x="49"/><use xlink:href="#B" x="56"/><use xlink:href="#B" x="63"/><use xlink:href="#B" x="70"/><use xlink:href="#B" x="84"/><use xlink:href="#B" y="7"/><use xlink:href="#B" x="7" y="7"/><use xlink:href="#B" x="35" y="7"/><use xlink:href="#B" x="42" y="7"/><use xlink:href="#B" x="49" y="7"/><use xlink:href="#B" x="56" y="7"/><use xlink:href="#B" x="70" y="7"/><use xlink:href="#B" x="77" y="7"/><use xlink:href="#B" y="14"/><use xlink:href="#B" x="21" y="14"/><use xlink:href="#B" x="42" y="14"/><use xlink:href="#B" x="70" y="14"/><use xlink:href="#B" x="84" y="14"/><use xlink:href="#B" x="42" y="21"/><use xlink:href="#B" x="49" y="21"/><use xlink:href="#B" x="63" y="21"/><use xlink:href="#B" x="77" y="21"/><use xlink:href="#B" x="84" y="21"/><use xlink:href="#B" y="28"/><use xlink:href="#B" x="7" y="28"/><use xlink:href="#B" x="14" y="28"/><use xlink:href="#B" x="21" y="28"/><use xlink:href="#B" x="42" y="28"/><use xlink:href="#B" x="49" y="28"/><use xlink:href="#B" x="63" y="28"/><use xlink:href="#B" x="70" y="28"/><use xlink:href="#B" x="77" y="28"/><use xlink:href="#B" x="14" y="35"/><use xlink:href="#B" x="35" y="35"/><use xlink:href="#B" x="49" y="35"/><use xlink:href="#B" x="56" y="35"/><use xlink:href="#B" y="42"/><use xlink:href="#B" x="14" y="42"/><use xlink:href="#B" x="28" y="42"/><use xlink:href="#B" x="42" y="42"/><use xlink:href="#B" x="56" y="42"/><use xlink:href="#B" x="70" y="42"/><use xlink:href="#B" x="84" y="42"/><use xlink:href="#B" x="7" y="49"/><use xlink:href="#B" x="35" y="49"/><use xlink:href="#B" x="42" y="49"/><use xlink:href="#B" x="70" y="49"/><use xlink:href="#B" x="77" y="49"/><use xlink:href="#B" x="-56" y="56"/><use xlink:href="#B" x="-35" y="56"/><use xlink:href="#B" x="-28" y="56"/><use xlink:href="#B" x="-21" y="56"/><use xlink:href="#B" x="-14" y="56"/><use xlink:href="#B" x="-7" y="56"/><use xlink:href="#B" y="56"/><use xlink:href="#B" x="14" y="56"/><use xlink:href="#B" x="28" y="56"/><use xlink:href="#B" x="35" y="56"/><use xlink:href="#B" x="49" y="56"/><use xlink:href="#B" x="63" y="56"/><use xlink:href="#B" x="77" y="56"/><use xlink:href="#B" x="84" y="56"/><use xlink:href="#B" x="91" y="56"/><use xlink:href="#B" x="112" y="56"/><use xlink:href="#B" x="126" y="56"/><use xlink:href="#B" x="133" y="56"/><use xlink:href="#B" x="140" y="56"/><use xlink:href="#B" x="-56" y="63"/><use xlink:href="#B" x="-42" y="63"/><use xlink:href="#B" x="-35" y="63"/><use xlink:href="#B" x="-21" y="63"/><use xlink:href="#B" y="63"/><use xlink:href="#B" x="7" y="63"/><use xlink:href="#B" x="28" y="63"/><use xlink:href="#B" x="35" y="63"/><use xlink:href="#B" x="42" y="63"/><use xlink:href="#B" x="49" y="63"/><use xlink:href="#B" x="63" y="63"/><use xlink:href="#B" x="70" y="63"/><use xlink:href="#B" x="77" y="63"/><use xlink:href="#B" x="112" y="63"/><use xlink:href="#B" x="119" y="63"/><use xlink:href="#B" x="126" y="63"/><use xlink:href="#B" x="133" y="63"/><use xlink:href="#B" x="-35" y="70"/><use xlink:href="#B" x="-14" y="70"/><use xlink:href="#B" x="-7" y="70"/><use xlink:href="#B" y="70"/><use xlink:href="#B" x="7" y="70"/><use xlink:href="#B" x="14" y="70"/><use xlink:href="#B" x="35" y="70"/><use xlink:href="#B" x="63" y="70"/><use xlink:href="#B" x="70" y="70"/><use xlink:href="#B" x="84" y="70"/><use xlink:href="#B" x="91" y="70"/><use xlink:href="#B" x="112" y="70"/><use xlink:href="#B" x="126" y="70"/><use xlink:href="#B" x="-56" y="77"/><use xlink:href="#B" x="-49" y="77"/><use xlink:href="#B" x="-42" y="77"/><use xlink:href="#B" x="-7" y="77"/><use xlink:href="#B" y="77"/><use xlink:href="#B" x="7" y="77"/><use xlink:href="#B" x="14" y="77"/><use xlink:href="#B" x="28" y="77"/><use xlink:href="#B" x="35" y="77"/><use xlink:href="#B" x="56" y="77"/><use xlink:href="#B" x="63" y="77"/><use xlink:href="#B" x="98" y="77"/><use xlink:href="#B" x="112" y="77"/><use xlink:href="#B" x="133" y="77"/><use xlink:href="#B" x="140" y="77"/><use xlink:href="#B" x="-56" y="84"/><use xlink:href="#B" x="-49" y="84"/><use xlink:href="#B" x="-42" y="84"/><use xlink:href="#B" x="-35" y="84"/><use xlink:href="#B" x="-21" y="84"/><use xlink:href="#B" x="-14" y="84"/><use xlink:href="#B" x="-7" y="84"/><use xlink:href="#B" y="84"/><use xlink:href="#B" x="7" y="84"/><use xlink:href="#B" x="28" y="84"/><use xlink:href="#B" x="35" y="84"/><use xlink:href="#B" x="49" y="84"/><use xlink:href="#B" x="56" y="84"/><use xlink:href="#B" x="77" y="84"/><use xlink:href="#B" x="84" y="84"/><use xlink:href="#B" x="98" y="84"/><use xlink:href="#B" x="119" y="84"/><use xlink:href="#B" x="133" y="84"/><use xlink:href="#B" x="140" y="84"/><use xlink:href="#B" x="-42" y="91"/><use xlink:href="#B" x="-35" y="91"/><use xlink:href="#B" x="-28" y="91"/><use xlink:href="#B" x="-7" y="91"/><use xlink:href="#B" y="91"/><use xlink:href="#B" x="7" y="91"/><use xlink:href="#B" x="14" y="91"/><use xlink:href="#B" x="35" y="91"/><use xlink:href="#B" x="42" y="91"/><use xlink:href="#B" x="49" y="91"/><use xlink:href="#B" x="63" y="91"/><use xlink:href="#B" x="70" y="91"/><use xlink:href="#B" x="84" y="91"/><use xlink:href="#B" x="98" y="91"/><use xlink:href="#B" x="105" y="91"/><use xlink:href="#B" x="112" y="91"/><use xlink:href="#B" x="119" y="91"/><use xlink:href="#B" x="126" y="91"/><use xlink:href="#B" x="140" y="91"/><use xlink:href="#B" x="-21" y="98"/><use xlink:href="#B" x="-14" y="98"/><use xlink:href="#B" y="98"/><use xlink:href="#B" x="14" y="98"/><use xlink:href="#B" x="21" y="98"/><use xlink:href="#B" x="28" y="98"/><use xlink:href="#B" x="35" y="98"/><use xlink:href="#B" x="49" y="98"/><use xlink:href="#B" x="63" y="98"/><use xlink:href="#B" x="77" y="98"/><use xlink:href="#B" x="98" y="98"/><use xlink:href="#B" x="105" y="98"/><use xlink:href="#B" x="119" y="98"/><use xlink:href="#B" x="140" y="98"/><use xlink:href="#B" x="-56" y="105"/><use xlink:href="#B" x="-42" y="105"/><use xlink:href="#B" x="-21" y="105"/><use xlink:href="#B" y="105"/><use xlink:href="#B" x="21" y="105"/><use xlink:href="#B" x="28" y="105"/><use xlink:href="#B" x="49" y="105"/><use xlink:href="#B" x="70" y="105"/><use xlink:href="#B" x="91" y="105"/><use xlink:href="#B" x="98" y="105"/><use xlink:href="#B" x="105" y="105"/><use xlink:href="#B" x="119" y="105"/><use xlink:href="#B" x="126" y="105"/><use xlink:href="#B" x="140" y="105"/><use xlink:href="#B" x="-49" y="112"/><use xlink:href="#B" x="-42" y="112"/><use xlink:href="#B" x="-21" y="112"/><use xlink:href="#B" x="-14" y="112"/><use xlink:href="#B" x="14" y="112"/><use xlink:href="#B" x="28" y="112"/><use xlink:href="#B" x="42" y="112"/><use xlink:href="#B" x="56" y="112"/><use xlink:href="#B" x="105" y="112"/><use xlink:href="#B" x="133" y="112"/><use xlink:href="#B" x="140" y="112"/><use xlink:href="#B" x="-56" y="119"/><use xlink:href="#B" x="-49" y="119"/><use xlink:href="#B" x="-35" y="119"/><use xlink:href="#B" x="-21" y="119"/><use xlink:href="#B" y="119"/><use xlink:href="#B" x="7" y="119"/><use xlink:href="#B" x="28" y="119"/><use xlink:href="#B" x="35" y="119"/><use xlink:href="#B" x="42" y="119"/><use xlink:href="#B" x="49" y="119"/><use xlink:href="#B" x="56" y="119"/><use xlink:href="#B" x="63" y="119"/><use xlink:href="#B" x="70" y="119"/><use xlink:href="#B" x="77" y="119"/><use xlink:href="#B" x="84" y="119"/><use xlink:href="#B" x="91" y="119"/><use xlink:href="#B" x="112" y="119"/><use xlink:href="#B" x="119" y="119"/><use xlink:href="#B" x="-56" y="126"/><use xlink:href="#B" x="-49" y="126"/><use xlink:href="#B" x="-28" y="126"/><use xlink:href="#B" x="-21" y="126"/><use xlink:href="#B" x="-14" y="126"/><use xlink:href="#B" x="-7" y="126"/><use xlink:href="#B" y="126"/><use xlink:href="#B" x="7" y="126"/><use xlink:href="#B" x="21" y="126"/><use xlink:href="#B" x="49" y="126"/><use xlink:href="#B" x="63" y="126"/><use xlink:href="#B" x="77" y="126"/><use xlink:href="#B" x="91" y="126"/><use xlink:href="#B" x="112" y="126"/><use xlink:href="#B" x="119" y="126"/><use xlink:href="#B" x="126" y="126"/><use xlink:href="#B" x="140" y="126"/><use xlink:href="#B" x="-56" y="133"/><use xlink:href="#B" x="-49" y="133"/><use xlink:href="#B" y="133"/><use xlink:href="#B" x="14" y="133"/><use xlink:href="#B" x="21" y="133"/><use xlink:href="#B" x="42" y="133"/><use xlink:href="#B" x="56" y="133"/><use xlink:href="#B" x="70" y="133"/><use xlink:href="#B" x="84" y="133"/><use xlink:href="#B" x="126" y="133"/><use xlink:href="#B" x="133" y="133"/><use xlink:href="#B" x="140" y="133"/><use xlink:href="#B" x="-56" y="140"/><use xlink:href="#B" x="-49" y="140"/><use xlink:href="#B" x="-35" y="140"/><use xlink:href="#B" x="-28" y="140"/><use xlink:href="#B" x="-14" y="140"/><use xlink:href="#B" x="-7" y="140"/><use xlink:href="#B" y="140"/><use xlink:href="#B" x="28" y="140"/><use xlink:href="#B" x="35" y="140"/><use xlink:href="#B" x="42" y="140"/><use xlink:href="#B" x="49" y="140"/><use xlink:href="#B" x="56" y="140"/><use xlink:href="#B" x="63" y="140"/><use xlink:href="#B" x="70" y="140"/><use xlink:href="#B" x="77" y="140"/><use xlink:href="#B" x="84" y="140"/><use xlink:href="#B" x="91" y="140"/><use xlink:href="#B" x="98" y="140"/><use xlink:href="#B" x="105" y="140"/><use xlink:href="#B" x="112" y="140"/><use xlink:href="#B" x="119" y="140"/><use xlink:href="#B" x="126" y="140"/><use xlink:href="#B" x="140" y="140"/><use xlink:href="#B" y="147"/><use xlink:href="#B" x="21" y="147"/><use xlink:href="#B" x="42" y="147"/><use xlink:href="#B" x="49" y="147"/><use xlink:href="#B" x="70" y="147"/><use xlink:href="#B" x="84" y="147"/><use xlink:href="#B" x="112" y="147"/><use xlink:href="#B" x="133" y="147"/><use xlink:href="#B" x="140" y="147"/><use xlink:href="#B" y="154"/><use xlink:href="#B" x="14" y="154"/><use xlink:href="#B" x="42" y="154"/><use xlink:href="#B" x="49" y="154"/><use xlink:href="#B" x="63" y="154"/><use xlink:href="#B" x="70" y="154"/><use xlink:href="#B" x="77" y="154"/><use xlink:href="#B" x="84" y="154"/><use xlink:href="#B" x="98" y="154"/><use xlink:href="#B" x="112" y="154"/><use xlink:href="#B" x="119" y="154"/><use xlink:href="#B" x="126" y="154"/><use xlink:href="#B" y="161"/><use xlink:href="#B" x="14" y="161"/><use xlink:href="#B" x="28" y="161"/><use xlink:href="#B" x="42" y="161"/><use xlink:href="#B" x="49" y="161"/><use xlink:href="#B" x="56" y="161"/><use xlink:href="#B" x="63" y="161"/><use xlink:href="#B" x="70" y="161"/><use xlink:href="#B" x="77" y="161"/><use xlink:href="#B" x="84" y="161"/><use xlink:href="#B" x="112" y="161"/><use xlink:href="#B" x="119" y="161"/><use xlink:href="#B" y="168"/><use xlink:href="#B" x="14" y="168"/><use xlink:href="#B" x="21" y="168"/><use xlink:href="#B" x="28" y="168"/><use xlink:href="#B" x="35" y="168"/><use xlink:href="#B" x="42" y="168"/><use xlink:href="#B" x="49" y="168"/><use xlink:href="#B" x="77" y="168"/><use xlink:href="#B" x="84" y="168"/><use xlink:href="#B" x="91" y="168"/><use xlink:href="#B" x="98" y="168"/><use xlink:href="#B" x="105" y="168"/><use xlink:href="#B" x="112" y="168"/><use xlink:href="#B" x="119" y="168"/><use xlink:href="#B" x="140" y="168"/><use xlink:href="#B" y="175"/><use xlink:href="#B" x="14" y="175"/><use xlink:href="#B" x="28" y="175"/><use xlink:href="#B" x="49" y="175"/><use xlink:href="#B" x="56" y="175"/><use xlink:href="#B" x="63" y="175"/><use xlink:href="#B" x="70" y="175"/><use xlink:href="#B" x="84" y="175"/><use xlink:href="#B" x="91" y="175"/><use xlink:href="#B" x="105" y="175"/><use xlink:href="#B" x="126" y="175"/><use xlink:href="#B" x="140" y="175"/><use xlink:href="#B" x="28" y="182"/><use xlink:href="#B" x="35" y="182"/><use xlink:href="#B" x="49" y="182"/><use xlink:href="#B" x="70" y="182"/><use xlink:href="#B" x="105" y="182"/><use xlink:href="#B" x="112" y="182"/><use xlink:href="#B" x="119" y="182"/><use xlink:href="#B" x="133" y="182"/><use xlink:href="#B" x="140" y="182"/><use xlink:href="#B" x="7" y="189"/><use xlink:href="#B" x="21" y="189"/><use xlink:href="#B" x="70" y="189"/><use xlink:href="#B" x="98" y="189"/><use xlink:href="#B" x="112" y="189"/><use xlink:href="#B" x="126" y="189"/><use xlink:href="#B" x="140" y="189"/><use xlink:href="#B" y="196"/><use xlink:href="#B" x="14" y="196"/><use xlink:href="#B" x="35" y="196"/><use xlink:href="#B" x="49" y="196"/><use xlink:href="#B" x="77" y="196"/><use xlink:href="#B" x="84" y="196"/><use xlink:href="#B" x="91" y="196"/><use xlink:href="#B" x="105" y="196"/><use xlink:href="#B" x="112" y="196"/><path d="M46.271 14.004H30.729h0c-7.574 0-13.991 5.004-16.043 11.844a16.26 16.26 0 0 0-.493 2.178A16.44 16.44 0 0 0 14 30.541v15.911c0 9.123 7.507 16.542 16.729 16.542l7.771.001 7.771-.002C55.493 62.994 63 55.575 63 46.452v-15.91c0-9.119-7.507-16.537-16.729-16.537zm9.379 32.448c0 5.069-4.207 9.192-9.381 9.192l-7.769.001-7.769-.002c-5.174 0-9.381-4.124-9.381-9.192v-15.91a8.99 8.99 0 0 1 1.133-4.376 9.32 9.32 0 0 1 2.866-3.146 9.46 9.46 0 0 1 5.38-1.665h15.542c5.172 0 9.379 4.121 9.379 9.188v15.911zm144.621-32.448h-15.542 0c-7.574 0-13.991 5.004-16.043 11.844a16.26 16.26 0 0 0-.493 2.178 16.44 16.44 0 0 0-.193 2.515v15.911c0 9.123 7.507 16.542 16.729 16.542l7.771.001 7.771-.002c9.222 0 16.729-7.419 16.729-16.542v-15.91c0-9.119-7.507-16.537-16.729-16.537zm9.379 32.448c0 5.069-4.207 9.192-9.381 9.192l-7.769.001-7.769-.002c-5.174 0-9.381-4.124-9.381-9.192v-15.91a8.99 8.99 0 0 1 1.133-4.376 9.32 9.32 0 0 1 2.866-3.146 9.46 9.46 0 0 1 5.38-1.665h15.542c5.172 0 9.379 4.121 9.379 9.188v15.911zM46.271 168.004H30.729h0c-7.574 0-13.991 5.004-16.043 11.844a16.26 16.26 0 0 0-.493 2.178 16.44 16.44 0 0 0-.193 2.515v15.911c0 9.123 7.507 16.542 16.729 16.542l7.771.001 7.771-.002c9.222 0 16.729-7.419 16.729-16.542v-15.91c0-9.119-7.507-16.538-16.729-16.538zm9.379 32.448c0 5.069-4.207 9.192-9.381 9.192l-7.769.001-7.769-.002c-5.174 0-9.381-4.124-9.381-9.192V184.54a8.99 8.99 0 0 1 1.133-4.376 9.32 9.32 0 0 1 2.866-3.146 9.46 9.46 0 0 1 5.38-1.665h15.542c5.172 0 9.379 4.121 9.379 9.188v15.911z"/><use xlink:href="#C"/><path d="M187.744 49c-3.169 0-5.747-2.527-5.747-5.63v-9.744a5.52 5.52 0 0 1 .693-2.68c.426-.768 1.029-1.428 1.756-1.927.933-.642 2.07-1.02 3.295-1.02h9.519c3.166 0 5.744 2.524 5.744 5.627v9.744c0 3.103-2.578 5.63-5.744 5.63H192.5h-4.756z"/><use xlink:href="#C" y="154"/><defs ><path id="B" d="M73.5 14a3.5 3.5 0 1 1 0 7 3.5 3.5 0 1 1 0-7z"/><path id="C" d="M33.744 49c-3.169 0-5.747-2.527-5.747-5.63v-9.744a5.52 5.52 0 0 1 .693-2.68c.426-.768 1.029-1.428 1.756-1.927.933-.642 2.07-1.02 3.295-1.02h9.519c3.166 0 5.744 2.524 5.744 5.627v9.744c0 3.103-2.578 5.63-5.744 5.63H38.5h-4.756z"/></defs></svg>