<svg xmlns="http://www.w3.org/2000/svg" xmlns:xlink="http://www.w3.org/1999/xlink" viewBox="0 0 100 100" xmlns:v="https://vecta.io/nano"><style><![CDATA[.B{fill:#777}]]></style><svg width="100" height="100" shape-rendering="crispEdges" viewBox="0 0 2000 2000"><path fill="#eee" d="M0 0h2000v2000H0z"/><svg x="629" y="173" width="57" height="57" viewBox="0 0 4 4" xml:space="preserve"><use xlink:href="#B" class="B"/></svg><svg x="686" y="173" width="57" height="57" viewBox="0 0 4 4" xml:space="preserve"><use xlink:href="#B" class="B"/></svg><svg x="743" y="173" width="57" height="57" viewBox="0 0 4 4" xml:space="preserve"><use xlink:href="#B" class="B"/></svg><svg x="857" y="173" width="57" height="57" viewBox="0 0 4 4" xml:space="preserve"><use xlink:href="#B" class="B"/></svg><svg x="971" y="173" width="57" height="57" viewBox="0 0 4 4" xml:space="preserve"><use xlink:href="#B" class="B"/></svg><svg x="1199" y="173" width="57" height="57" viewBox="0 0 4 4" xml:space="preserve"><use xlink:href="#B" class="B"/></svg><svg x="1256" y="173" width="57" height="57" viewBox="0 0 4 4" xml:space="preserve"><use xlink:href="#B" class="B"/></svg><svg x="629" y="230" width="57" height="57" viewBox="0 0 4 4" xml:space="preserve"><use xlink:href="#B" class="B"/></svg><svg x="686" y="230" width="57" height="57" viewBox="0 0 4 4" xml:space="preserve"><use xlink:href="#B" class="B"/></svg><svg x="743" y="230" width="57" height="57" viewBox="0 0 4 4" xml:space="preserve"><use xlink:href="#B" class="B"/></svg><svg x="914" y="230" width="57" height="57" viewBox="0 0 4 4" xml:space="preserve"><use xlink:href="#B" class="B"/></svg><svg x="971" y="230" width="57" height="57" viewBox="0 0 4 4" xml:space="preserve"><use xlink:href="#B" class="B"/></svg><svg x="1085" y="230" width="57" height="57" viewBox="0 0 4 4" xml:space="preserve"><use xlink:href="#B" class="B"/></svg><svg x="1142" y="230" width="57" height="57" viewBox="0 0 4 4" xml:space="preserve"><use xlink:href="#B" class="B"/></svg><svg x="1256" y="230" width="57" height="57" viewBox="0 0 4 4" xml:space="preserve"><use xlink:href="#B" class="B"/></svg><svg x="629" y="287" width="57" height="57" viewBox="0 0 4 4" xml:space="preserve"><use xlink:href="#B" class="B"/></svg><svg x="743" y="287" width="57" height="57" viewBox="0 0 4 4" xml:space="preserve"><use xlink:href="#B" class="B"/></svg><svg x="800" y="287" width="57" height="57" viewBox="0 0 4 4" xml:space="preserve"><use xlink:href="#B" class="B"/></svg><svg x="914" y="287" width="57" height="57" viewBox="0 0 4 4" xml:space="preserve"><use xlink:href="#B" class="B"/></svg><svg x="971" y="287" width="57" height="57" viewBox="0 0 4 4" xml:space="preserve"><use xlink:href="#B" class="B"/></svg><svg x="1256" y="287" width="57" height="57" viewBox="0 0 4 4" xml:space="preserve"><use xlink:href="#B" class="B"/></svg><svg x="1313" y="287" width="57" height="57" viewBox="0 0 4 4" xml:space="preserve"><use xlink:href="#B" class="B"/></svg><svg x="629" y="344" width="57" height="57" viewBox="0 0 4 4" xml:space="preserve"><use xlink:href="#B" class="B"/></svg><svg x="686" y="344" width="57" height="57" viewBox="0 0 4 4" xml:space="preserve"><use xlink:href="#B" class="B"/></svg><svg x="800" y="344" width="57" height="57" viewBox="0 0 4 4" xml:space="preserve"><use xlink:href="#B" class="B"/></svg><svg x="914" y="344" width="57" height="57" viewBox="0 0 4 4" xml:space="preserve"><use xlink:href="#B" class="B"/></svg><svg x="971" y="344" width="57" height="57" viewBox="0 0 4 4" xml:space="preserve"><use xlink:href="#B" class="B"/></svg><svg x="1085" y="344" width="57" height="57" viewBox="0 0 4 4" xml:space="preserve"><use xlink:href="#B" class="B"/></svg><svg x="1199" y="344" width="57" height="57" viewBox="0 0 4 4" xml:space="preserve"><use xlink:href="#B" class="B"/></svg><svg x="1256" y="401" width="57" height="57" viewBox="0 0 4 4" xml:space="preserve"><use xlink:href="#B" class="B"/></svg><svg x="1313" y="401" width="57" height="57" viewBox="0 0 4 4" xml:space="preserve"><use xlink:href="#B" class="B"/></svg><svg x="629" y="458" width="57" height="57" viewBox="0 0 4 4" xml:space="preserve"><use xlink:href="#B" class="B"/></svg><svg x="800" y="458" width="57" height="57" viewBox="0 0 4 4" xml:space="preserve"><use xlink:href="#B" class="B"/></svg><svg x="857" y="458" width="57" height="57" viewBox="0 0 4 4" xml:space="preserve"><use xlink:href="#B" class="B"/></svg><svg x="914" y="458" width="57" height="57" viewBox="0 0 4 4" xml:space="preserve"><use xlink:href="#B" class="B"/></svg><svg x="971" y="458" width="57" height="57" viewBox="0 0 4 4" xml:space="preserve"><use xlink:href="#B" class="B"/></svg><svg x="1142" y="458" width="57" height="57" viewBox="0 0 4 4" xml:space="preserve"><use xlink:href="#B" class="B"/></svg><svg x="1199" y="458" width="57" height="57" viewBox="0 0 4 4" xml:space="preserve"><use xlink:href="#B" class="B"/></svg><svg x="1256" y="458" width="57" height="57" viewBox="0 0 4 4" xml:space="preserve"><use xlink:href="#B" class="B"/></svg><svg x="1313" y="458" width="57" height="57" viewBox="0 0 4 4" xml:space="preserve"><use xlink:href="#B" class="B"/></svg><svg x="629" y="515" width="57" height="57" viewBox="0 0 4 4" xml:space="preserve"><use xlink:href="#B" class="B"/></svg><svg x="743" y="515" width="57" height="57" viewBox="0 0 4 4" xml:space="preserve"><use xlink:href="#B" class="B"/></svg><svg x="857" y="515" width="57" height="57" viewBox="0 0 4 4" xml:space="preserve"><use xlink:href="#B" class="B"/></svg><svg x="971" y="515" width="57" height="57" viewBox="0 0 4 4" xml:space="preserve"><use xlink:href="#B" class="B"/></svg><svg x="1085" y="515" width="57" height="57" viewBox="0 0 4 4" xml:space="preserve"><use xlink:href="#B" class="B"/></svg><svg x="1199" y="515" width="57" height="57" viewBox="0 0 4 4" xml:space="preserve"><use xlink:href="#B" class="B"/></svg><svg x="1313" y="515" width="57" height="57" viewBox="0 0 4 4" xml:space="preserve"><use xlink:href="#B" class="B"/></svg><svg x="686" y="572" width="57" height="57" viewBox="0 0 4 4" xml:space="preserve"><use xlink:href="#B" class="B"/></svg><svg x="857" y="572" width="57" height="57" viewBox="0 0 4 4" xml:space="preserve"><use xlink:href="#B" class="B"/></svg><svg x="914" y="572" width="57" height="57" viewBox="0 0 4 4" xml:space="preserve"><use xlink:href="#B" class="B"/></svg><svg x="971" y="572" width="57" height="57" viewBox="0 0 4 4" xml:space="preserve"><use xlink:href="#B" class="B"/></svg><svg x="1085" y="572" width="57" height="57" viewBox="0 0 4 4" xml:space="preserve"><use xlink:href="#B" class="B"/></svg><svg x="1142" y="572" width="57" height="57" viewBox="0 0 4 4" xml:space="preserve"><use xlink:href="#B" class="B"/></svg><svg x="1256" y="572" width="57" height="57" viewBox="0 0 4 4" xml:space="preserve"><use xlink:href="#B" class="B"/></svg><svg x="173" y="629" width="57" height="57" viewBox="0 0 4 4" xml:space="preserve"><use xlink:href="#B" class="B"/></svg><svg x="230" y="629" width="57" height="57" viewBox="0 0 4 4" xml:space="preserve"><use xlink:href="#B" class="B"/></svg><svg x="401" y="629" width="57" height="57" viewBox="0 0 4 4" xml:space="preserve"><use xlink:href="#B" class="B"/></svg><svg x="458" y="629" width="57" height="57" viewBox="0 0 4 4" xml:space="preserve"><use xlink:href="#B" class="B"/></svg><svg x="515" y="629" width="57" height="57" viewBox="0 0 4 4" xml:space="preserve"><use xlink:href="#B" class="B"/></svg><svg x="800" y="629" width="57" height="57" viewBox="0 0 4 4" xml:space="preserve"><use xlink:href="#B" class="B"/></svg><svg x="914" y="629" width="57" height="57" viewBox="0 0 4 4" xml:space="preserve"><use xlink:href="#B" class="B"/></svg><svg x="971" y="629" width="57" height="57" viewBox="0 0 4 4" xml:space="preserve"><use xlink:href="#B" class="B"/></svg><svg x="1085" y="629" width="57" height="57" viewBox="0 0 4 4" xml:space="preserve"><use xlink:href="#B" class="B"/></svg><svg x="1199" y="629" width="57" height="57" viewBox="0 0 4 4" xml:space="preserve"><use xlink:href="#B" class="B"/></svg><svg x="1256" y="629" width="57" height="57" viewBox="0 0 4 4" xml:space="preserve"><use xlink:href="#B" class="B"/></svg><svg x="1313" y="629" width="57" height="57" viewBox="0 0 4 4" xml:space="preserve"><use xlink:href="#B" class="B"/></svg><svg x="1484" y="629" width="57" height="57" viewBox="0 0 4 4" xml:space="preserve"><use xlink:href="#B" class="B"/></svg><svg x="1598" y="629" width="57" height="57" viewBox="0 0 4 4" xml:space="preserve"><use xlink:href="#B" class="B"/></svg><svg x="1655" y="629" width="57" height="57" viewBox="0 0 4 4" xml:space="preserve"><use xlink:href="#B" class="B"/></svg><svg x="1712" y="629" width="57" height="57" viewBox="0 0 4 4" xml:space="preserve"><use xlink:href="#B" class="B"/></svg><svg x="1769" y="629" width="57" height="57" viewBox="0 0 4 4" xml:space="preserve"><use xlink:href="#B" class="B"/></svg><svg x="401" y="686" width="57" height="57" viewBox="0 0 4 4" xml:space="preserve"><use xlink:href="#B" class="B"/></svg><svg x="686" y="686" width="57" height="57" viewBox="0 0 4 4" xml:space="preserve"><use xlink:href="#B" class="B"/></svg><svg x="743" y="686" width="57" height="57" viewBox="0 0 4 4" xml:space="preserve"><use xlink:href="#B" class="B"/></svg><svg x="857" y="686" width="57" height="57" viewBox="0 0 4 4" xml:space="preserve"><use xlink:href="#B" class="B"/></svg><svg x="1028" y="686" width="57" height="57" viewBox="0 0 4 4" xml:space="preserve"><use xlink:href="#B" class="B"/></svg><svg x="1085" y="686" width="57" height="57" viewBox="0 0 4 4" xml:space="preserve"><use xlink:href="#B" class="B"/></svg><svg x="1199" y="686" width="57" height="57" viewBox="0 0 4 4" xml:space="preserve"><use xlink:href="#B" class="B"/></svg><svg x="1256" y="686" width="57" height="57" viewBox="0 0 4 4" xml:space="preserve"><use xlink:href="#B" class="B"/></svg><svg x="1370" y="686" width="57" height="57" viewBox="0 0 4 4" xml:space="preserve"><use xlink:href="#B" class="B"/></svg><svg x="1427" y="686" width="57" height="57" viewBox="0 0 4 4" xml:space="preserve"><use xlink:href="#B" class="B"/></svg><svg x="1484" y="686" width="57" height="57" viewBox="0 0 4 4" xml:space="preserve"><use xlink:href="#B" class="B"/></svg><svg x="1655" y="686" width="57" height="57" viewBox="0 0 4 4" xml:space="preserve"><use xlink:href="#B" class="B"/></svg><svg x="230" y="743" width="57" height="57" viewBox="0 0 4 4" xml:space="preserve"><use xlink:href="#B" class="B"/></svg><svg x="287" y="743" width="57" height="57" viewBox="0 0 4 4" xml:space="preserve"><use xlink:href="#B" class="B"/></svg><svg x="344" y="743" width="57" height="57" viewBox="0 0 4 4" xml:space="preserve"><use xlink:href="#B" class="B"/></svg><svg x="515" y="743" width="57" height="57" viewBox="0 0 4 4" xml:space="preserve"><use xlink:href="#B" class="B"/></svg><svg x="629" y="743" width="57" height="57" viewBox="0 0 4 4" xml:space="preserve"><use xlink:href="#B" class="B"/></svg><svg x="800" y="743" width="57" height="57" viewBox="0 0 4 4" xml:space="preserve"><use xlink:href="#B" class="B"/></svg><svg x="857" y="743" width="57" height="57" viewBox="0 0 4 4" xml:space="preserve"><use xlink:href="#B" class="B"/></svg><svg x="1199" y="743" width="57" height="57" viewBox="0 0 4 4" xml:space="preserve"><use xlink:href="#B" class="B"/></svg><svg x="1313" y="743" width="57" height="57" viewBox="0 0 4 4" xml:space="preserve"><use xlink:href="#B" class="B"/></svg><svg x="1427" y="743" width="57" height="57" viewBox="0 0 4 4" xml:space="preserve"><use xlink:href="#B" class="B"/></svg><svg x="1484" y="743" width="57" height="57" viewBox="0 0 4 4" xml:space="preserve"><use xlink:href="#B" class="B"/></svg><svg x="1541" y="743" width="57" height="57" viewBox="0 0 4 4" xml:space="preserve"><use xlink:href="#B" class="B"/></svg><svg x="1655" y="743" width="57" height="57" viewBox="0 0 4 4" xml:space="preserve"><use xlink:href="#B" class="B"/></svg><svg x="1712" y="743" width="57" height="57" viewBox="0 0 4 4" xml:space="preserve"><use xlink:href="#B" class="B"/></svg><svg x="173" y="800" width="57" height="57" viewBox="0 0 4 4" xml:space="preserve"><use xlink:href="#B" class="B"/></svg><svg x="230" y="800" width="57" height="57" viewBox="0 0 4 4" xml:space="preserve"><use xlink:href="#B" class="B"/></svg><svg x="287" y="800" width="57" height="57" viewBox="0 0 4 4" xml:space="preserve"><use xlink:href="#B" class="B"/></svg><svg x="743" y="800" width="57" height="57" viewBox="0 0 4 4" xml:space="preserve"><use xlink:href="#B" class="B"/></svg><svg x="800" y="800" width="57" height="57" viewBox="0 0 4 4" xml:space="preserve"><use xlink:href="#B" class="B"/></svg><svg x="1085" y="800" width="57" height="57" viewBox="0 0 4 4" xml:space="preserve"><use xlink:href="#B" class="B"/></svg><svg x="1142" y="800" width="57" height="57" viewBox="0 0 4 4" xml:space="preserve"><use xlink:href="#B" class="B"/></svg><svg x="1256" y="800" width="57" height="57" viewBox="0 0 4 4" xml:space="preserve"><use xlink:href="#B" class="B"/></svg><svg x="1313" y="800" width="57" height="57" viewBox="0 0 4 4" xml:space="preserve"><use xlink:href="#B" class="B"/></svg><svg x="1712" y="800" width="57" height="57" viewBox="0 0 4 4" xml:space="preserve"><use xlink:href="#B" class="B"/></svg><svg x="344" y="857" width="57" height="57" viewBox="0 0 4 4" xml:space="preserve"><use xlink:href="#B" class="B"/></svg><svg x="401" y="857" width="57" height="57" viewBox="0 0 4 4" xml:space="preserve"><use xlink:href="#B" class="B"/></svg><svg x="458" y="857" width="57" height="57" viewBox="0 0 4 4" xml:space="preserve"><use xlink:href="#B" class="B"/></svg><svg x="515" y="857" width="57" height="57" viewBox="0 0 4 4" xml:space="preserve"><use xlink:href="#B" class="B"/></svg><svg x="572" y="857" width="57" height="57" viewBox="0 0 4 4" xml:space="preserve"><use xlink:href="#B" class="B"/></svg><svg x="629" y="857" width="57" height="57" viewBox="0 0 4 4" xml:space="preserve"><use xlink:href="#B" class="B"/></svg><svg x="743" y="857" width="57" height="57" viewBox="0 0 4 4" xml:space="preserve"><use xlink:href="#B" class="B"/></svg><svg x="857" y="857" width="57" height="57" viewBox="0 0 4 4" xml:space="preserve"><use xlink:href="#B" class="B"/></svg><svg x="971" y="857" width="57" height="57" viewBox="0 0 4 4" xml:space="preserve"><use xlink:href="#B" class="B"/></svg><svg x="1085" y="857" width="57" height="57" viewBox="0 0 4 4" xml:space="preserve"><use xlink:href="#B" class="B"/></svg><svg x="1142" y="857" width="57" height="57" viewBox="0 0 4 4" xml:space="preserve"><use xlink:href="#B" class="B"/></svg><svg x="1256" y="857" width="57" height="57" viewBox="0 0 4 4" xml:space="preserve"><use xlink:href="#B" class="B"/></svg><svg x="1370" y="857" width="57" height="57" viewBox="0 0 4 4" xml:space="preserve"><use xlink:href="#B" class="B"/></svg><svg x="1484" y="857" width="57" height="57" viewBox="0 0 4 4" xml:space="preserve"><use xlink:href="#B" class="B"/></svg><svg x="1541" y="857" width="57" height="57" viewBox="0 0 4 4" xml:space="preserve"><use xlink:href="#B" class="B"/></svg><svg x="1655" y="857" width="57" height="57" viewBox="0 0 4 4" xml:space="preserve"><use xlink:href="#B" class="B"/></svg><svg x="1712" y="857" width="57" height="57" viewBox="0 0 4 4" xml:space="preserve"><use xlink:href="#B" class="B"/></svg><svg x="173" y="914" width="57" height="57" viewBox="0 0 4 4" xml:space="preserve"><use xlink:href="#B" class="B"/></svg><svg x="230" y="914" width="57" height="57" viewBox="0 0 4 4" xml:space="preserve"><use xlink:href="#B" class="B"/></svg><svg x="344" y="914" width="57" height="57" viewBox="0 0 4 4" xml:space="preserve"><use xlink:href="#B" class="B"/></svg><svg x="572" y="914" width="57" height="57" viewBox="0 0 4 4" xml:space="preserve"><use xlink:href="#B" class="B"/></svg><svg x="914" y="914" width="57" height="57" viewBox="0 0 4 4" xml:space="preserve"><use xlink:href="#B" class="B"/></svg><svg x="971" y="914" width="57" height="57" viewBox="0 0 4 4" xml:space="preserve"><use xlink:href="#B" class="B"/></svg><svg x="1085" y="914" width="57" height="57" viewBox="0 0 4 4" xml:space="preserve"><use xlink:href="#B" class="B"/></svg><svg x="1199" y="914" width="57" height="57" viewBox="0 0 4 4" xml:space="preserve"><use xlink:href="#B" class="B"/></svg><svg x="1313" y="914" width="57" height="57" viewBox="0 0 4 4" xml:space="preserve"><use xlink:href="#B" class="B"/></svg><svg x="1370" y="914" width="57" height="57" viewBox="0 0 4 4" xml:space="preserve"><use xlink:href="#B" class="B"/></svg><svg x="1655" y="914" width="57" height="57" viewBox="0 0 4 4" xml:space="preserve"><use xlink:href="#B" class="B"/></svg><svg x="1712" y="914" width="57" height="57" viewBox="0 0 4 4" xml:space="preserve"><use xlink:href="#B" class="B"/></svg><svg x="1769" y="914" width="57" height="57" viewBox="0 0 4 4" xml:space="preserve"><use xlink:href="#B" class="B"/></svg><svg x="230" y="971" width="57" height="57" viewBox="0 0 4 4" xml:space="preserve"><use xlink:href="#B" class="B"/></svg><svg x="287" y="971" width="57" height="57" viewBox="0 0 4 4" xml:space="preserve"><use xlink:href="#B" class="B"/></svg><svg x="458" y="971" width="57" height="57" viewBox="0 0 4 4" xml:space="preserve"><use xlink:href="#B" class="B"/></svg><svg x="515" y="971" width="57" height="57" viewBox="0 0 4 4" xml:space="preserve"><use xlink:href="#B" class="B"/></svg><svg x="686" y="971" width="57" height="57" viewBox="0 0 4 4" xml:space="preserve"><use xlink:href="#B" class="B"/></svg><svg x="1028" y="971" width="57" height="57" viewBox="0 0 4 4" xml:space="preserve"><use xlink:href="#B" class="B"/></svg><svg x="1085" y="971" width="57" height="57" viewBox="0 0 4 4" xml:space="preserve"><use xlink:href="#B" class="B"/></svg><svg x="1199" y="971" width="57" height="57" viewBox="0 0 4 4" xml:space="preserve"><use xlink:href="#B" class="B"/></svg><svg x="1370" y="971" width="57" height="57" viewBox="0 0 4 4" xml:space="preserve"><use xlink:href="#B" class="B"/></svg><svg x="1427" y="971" width="57" height="57" viewBox="0 0 4 4" xml:space="preserve"><use xlink:href="#B" class="B"/></svg><svg x="1541" y="971" width="57" height="57" viewBox="0 0 4 4" xml:space="preserve"><use xlink:href="#B" class="B"/></svg><svg x="1598" y="971" width="57" height="57" viewBox="0 0 4 4" xml:space="preserve"><use xlink:href="#B" class="B"/></svg><svg x="1655" y="971" width="57" height="57" viewBox="0 0 4 4" xml:space="preserve"><use xlink:href="#B" class="B"/></svg><svg x="1769" y="971" width="57" height="57" viewBox="0 0 4 4" xml:space="preserve"><use xlink:href="#B" class="B"/></svg><svg x="230" y="1028" width="57" height="57" viewBox="0 0 4 4" xml:space="preserve"><use xlink:href="#B" class="B"/></svg><svg x="344" y="1028" width="57" height="57" viewBox="0 0 4 4" xml:space="preserve"><use xlink:href="#B" class="B"/></svg><svg x="572" y="1028" width="57" height="57" viewBox="0 0 4 4" xml:space="preserve"><use xlink:href="#B" class="B"/></svg><svg x="857" y="1028" width="57" height="57" viewBox="0 0 4 4" xml:space="preserve"><use xlink:href="#B" class="B"/></svg><svg x="1256" y="1028" width="57" height="57" viewBox="0 0 4 4" xml:space="preserve"><use xlink:href="#B" class="B"/></svg><svg x="1313" y="1028" width="57" height="57" viewBox="0 0 4 4" xml:space="preserve"><use xlink:href="#B" class="B"/></svg><svg x="1370" y="1028" width="57" height="57" viewBox="0 0 4 4" xml:space="preserve"><use xlink:href="#B" class="B"/></svg><svg x="1598" y="1028" width="57" height="57" viewBox="0 0 4 4" xml:space="preserve"><use xlink:href="#B" class="B"/></svg><svg x="1769" y="1028" width="57" height="57" viewBox="0 0 4 4" xml:space="preserve"><use xlink:href="#B" class="B"/></svg><svg x="173" y="1085" width="57" height="57" viewBox="0 0 4 4" xml:space="preserve"><use xlink:href="#B" class="B"/></svg><svg x="344" y="1085" width="57" height="57" viewBox="0 0 4 4" xml:space="preserve"><use xlink:href="#B" class="B"/></svg><svg x="401" y="1085" width="57" height="57" viewBox="0 0 4 4" xml:space="preserve"><use xlink:href="#B" class="B"/></svg><svg x="458" y="1085" width="57" height="57" viewBox="0 0 4 4" xml:space="preserve"><use xlink:href="#B" class="B"/></svg><svg x="515" y="1085" width="57" height="57" viewBox="0 0 4 4" xml:space="preserve"><use xlink:href="#B" class="B"/></svg><svg x="572" y="1085" width="57" height="57" viewBox="0 0 4 4" xml:space="preserve"><use xlink:href="#B" class="B"/></svg><svg x="743" y="1085" width="57" height="57" viewBox="0 0 4 4" xml:space="preserve"><use xlink:href="#B" class="B"/></svg><svg x="800" y="1085" width="57" height="57" viewBox="0 0 4 4" xml:space="preserve"><use xlink:href="#B" class="B"/></svg><svg x="914" y="1085" width="57" height="57" viewBox="0 0 4 4" xml:space="preserve"><use xlink:href="#B" class="B"/></svg><svg x="971" y="1085" width="57" height="57" viewBox="0 0 4 4" xml:space="preserve"><use xlink:href="#B" class="B"/></svg><svg x="1199" y="1085" width="57" height="57" viewBox="0 0 4 4" xml:space="preserve"><use xlink:href="#B" class="B"/></svg><svg x="1256" y="1085" width="57" height="57" viewBox="0 0 4 4" xml:space="preserve"><use xlink:href="#B" class="B"/></svg><svg x="1541" y="1085" width="57" height="57" viewBox="0 0 4 4" xml:space="preserve"><use xlink:href="#B" class="B"/></svg><svg x="1598" y="1085" width="57" height="57" viewBox="0 0 4 4" xml:space="preserve"><use xlink:href="#B" class="B"/></svg><svg x="1655" y="1085" width="57" height="57" viewBox="0 0 4 4" xml:space="preserve"><use xlink:href="#B" class="B"/></svg><svg x="1712" y="1085" width="57" height="57" viewBox="0 0 4 4" xml:space="preserve"><use xlink:href="#B" class="B"/></svg><svg x="173" y="1142" width="57" height="57" viewBox="0 0 4 4" xml:space="preserve"><use xlink:href="#B" class="B"/></svg><svg x="230" y="1142" width="57" height="57" viewBox="0 0 4 4" xml:space="preserve"><use xlink:href="#B" class="B"/></svg><svg x="458" y="1142" width="57" height="57" viewBox="0 0 4 4" xml:space="preserve"><use xlink:href="#B" class="B"/></svg><svg x="572" y="1142" width="57" height="57" viewBox="0 0 4 4" xml:space="preserve"><use xlink:href="#B" class="B"/></svg><svg x="743" y="1142" width="57" height="57" viewBox="0 0 4 4" xml:space="preserve"><use xlink:href="#B" class="B"/></svg><svg x="857" y="1142" width="57" height="57" viewBox="0 0 4 4" xml:space="preserve"><use xlink:href="#B" class="B"/></svg><svg x="971" y="1142" width="57" height="57" viewBox="0 0 4 4" xml:space="preserve"><use xlink:href="#B" class="B"/></svg><svg x="1028" y="1142" width="57" height="57" viewBox="0 0 4 4" xml:space="preserve"><use xlink:href="#B" class="B"/></svg><svg x="1256" y="1142" width="57" height="57" viewBox="0 0 4 4" xml:space="preserve"><use xlink:href="#B" class="B"/></svg><svg x="1541" y="1142" width="57" height="57" viewBox="0 0 4 4" xml:space="preserve"><use xlink:href="#B" class="B"/></svg><svg x="1598" y="1142" width="57" height="57" viewBox="0 0 4 4" xml:space="preserve"><use xlink:href="#B" class="B"/></svg><svg x="1655" y="1142" width="57" height="57" viewBox="0 0 4 4" xml:space="preserve"><use xlink:href="#B" class="B"/></svg><svg x="1769" y="1142" width="57" height="57" viewBox="0 0 4 4" xml:space="preserve"><use xlink:href="#B" class="B"/></svg><svg x="287" y="1199" width="57" height="57" viewBox="0 0 4 4" xml:space="preserve"><use xlink:href="#B" class="B"/></svg><svg x="344" y="1199" width="57" height="57" viewBox="0 0 4 4" xml:space="preserve"><use xlink:href="#B" class="B"/></svg><svg x="401" y="1199" width="57" height="57" viewBox="0 0 4 4" xml:space="preserve"><use xlink:href="#B" class="B"/></svg><svg x="515" y="1199" width="57" height="57" viewBox="0 0 4 4" xml:space="preserve"><use xlink:href="#B" class="B"/></svg><svg x="572" y="1199" width="57" height="57" viewBox="0 0 4 4" xml:space="preserve"><use xlink:href="#B" class="B"/></svg><svg x="629" y="1199" width="57" height="57" viewBox="0 0 4 4" xml:space="preserve"><use xlink:href="#B" class="B"/></svg><svg x="800" y="1199" width="57" height="57" viewBox="0 0 4 4" xml:space="preserve"><use xlink:href="#B" class="B"/></svg><svg x="857" y="1199" width="57" height="57" viewBox="0 0 4 4" xml:space="preserve"><use xlink:href="#B" class="B"/></svg><svg x="914" y="1199" width="57" height="57" viewBox="0 0 4 4" xml:space="preserve"><use xlink:href="#B" class="B"/></svg><svg x="971" y="1199" width="57" height="57" viewBox="0 0 4 4" xml:space="preserve"><use xlink:href="#B" class="B"/></svg><svg x="1028" y="1199" width="57" height="57" viewBox="0 0 4 4" xml:space="preserve"><use xlink:href="#B" class="B"/></svg><svg x="1199" y="1199" width="57" height="57" viewBox="0 0 4 4" xml:space="preserve"><use xlink:href="#B" class="B"/></svg><svg x="1427" y="1199" width="57" height="57" viewBox="0 0 4 4" xml:space="preserve"><use xlink:href="#B" class="B"/></svg><svg x="1484" y="1199" width="57" height="57" viewBox="0 0 4 4" xml:space="preserve"><use xlink:href="#B" class="B"/></svg><svg x="1541" y="1199" width="57" height="57" viewBox="0 0 4 4" xml:space="preserve"><use xlink:href="#B" class="B"/></svg><svg x="1655" y="1199" width="57" height="57" viewBox="0 0 4 4" xml:space="preserve"><use xlink:href="#B" class="B"/></svg><svg x="1769" y="1199" width="57" height="57" viewBox="0 0 4 4" xml:space="preserve"><use xlink:href="#B" class="B"/></svg><svg x="401" y="1256" width="57" height="57" viewBox="0 0 4 4" xml:space="preserve"><use xlink:href="#B" class="B"/></svg><svg x="572" y="1256" width="57" height="57" viewBox="0 0 4 4" xml:space="preserve"><use xlink:href="#B" class="B"/></svg><svg x="629" y="1256" width="57" height="57" viewBox="0 0 4 4" xml:space="preserve"><use xlink:href="#B" class="B"/></svg><svg x="743" y="1256" width="57" height="57" viewBox="0 0 4 4" xml:space="preserve"><use xlink:href="#B" class="B"/></svg><svg x="800" y="1256" width="57" height="57" viewBox="0 0 4 4" xml:space="preserve"><use xlink:href="#B" class="B"/></svg><svg x="914" y="1256" width="57" height="57" viewBox="0 0 4 4" xml:space="preserve"><use xlink:href="#B" class="B"/></svg><svg x="1256" y="1256" width="57" height="57" viewBox="0 0 4 4" xml:space="preserve"><use xlink:href="#B" class="B"/></svg><svg x="1313" y="1256" width="57" height="57" viewBox="0 0 4 4" xml:space="preserve"><use xlink:href="#B" class="B"/></svg><svg x="1370" y="1256" width="57" height="57" viewBox="0 0 4 4" xml:space="preserve"><use xlink:href="#B" class="B"/></svg><svg x="1484" y="1256" width="57" height="57" viewBox="0 0 4 4" xml:space="preserve"><use xlink:href="#B" class="B"/></svg><svg x="1712" y="1256" width="57" height="57" viewBox="0 0 4 4" xml:space="preserve"><use xlink:href="#B" class="B"/></svg><svg x="173" y="1313" width="57" height="57" viewBox="0 0 4 4" xml:space="preserve"><use xlink:href="#B" class="B"/></svg><svg x="230" y="1313" width="57" height="57" viewBox="0 0 4 4" xml:space="preserve"><use xlink:href="#B" class="B"/></svg><svg x="287" y="1313" width="57" height="57" viewBox="0 0 4 4" xml:space="preserve"><use xlink:href="#B" class="B"/></svg><svg x="401" y="1313" width="57" height="57" viewBox="0 0 4 4" xml:space="preserve"><use xlink:href="#B" class="B"/></svg><svg x="458" y="1313" width="57" height="57" viewBox="0 0 4 4" xml:space="preserve"><use xlink:href="#B" class="B"/></svg><svg x="515" y="1313" width="57" height="57" viewBox="0 0 4 4" xml:space="preserve"><use xlink:href="#B" class="B"/></svg><svg x="572" y="1313" width="57" height="57" viewBox="0 0 4 4" xml:space="preserve"><use xlink:href="#B" class="B"/></svg><svg x="629" y="1313" width="57" height="57" viewBox="0 0 4 4" xml:space="preserve"><use xlink:href="#B" class="B"/></svg><svg x="686" y="1313" width="57" height="57" viewBox="0 0 4 4" xml:space="preserve"><use xlink:href="#B" class="B"/></svg><svg x="857" y="1313" width="57" height="57" viewBox="0 0 4 4" xml:space="preserve"><use xlink:href="#B" class="B"/></svg><svg x="914" y="1313" width="57" height="57" viewBox="0 0 4 4" xml:space="preserve"><use xlink:href="#B" class="B"/></svg><svg x="1085" y="1313" width="57" height="57" viewBox="0 0 4 4" xml:space="preserve"><use xlink:href="#B" class="B"/></svg><svg x="1142" y="1313" width="57" height="57" viewBox="0 0 4 4" xml:space="preserve"><use xlink:href="#B" class="B"/></svg><svg x="1256" y="1313" width="57" height="57" viewBox="0 0 4 4" xml:space="preserve"><use xlink:href="#B" class="B"/></svg><svg x="1313" y="1313" width="57" height="57" viewBox="0 0 4 4" xml:space="preserve"><use xlink:href="#B" class="B"/></svg><svg x="1370" y="1313" width="57" height="57" viewBox="0 0 4 4" xml:space="preserve"><use xlink:href="#B" class="B"/></svg><svg x="1427" y="1313" width="57" height="57" viewBox="0 0 4 4" xml:space="preserve"><use xlink:href="#B" class="B"/></svg><svg x="1484" y="1313" width="57" height="57" viewBox="0 0 4 4" xml:space="preserve"><use xlink:href="#B" class="B"/></svg><svg x="1541" y="1313" width="57" height="57" viewBox="0 0 4 4" xml:space="preserve"><use xlink:href="#B" class="B"/></svg><svg x="1598" y="1313" width="57" height="57" viewBox="0 0 4 4" xml:space="preserve"><use xlink:href="#B" class="B"/></svg><svg x="1655" y="1313" width="57" height="57" viewBox="0 0 4 4" xml:space="preserve"><use xlink:href="#B" class="B"/></svg><svg x="629" y="1370" width="57" height="57" viewBox="0 0 4 4" xml:space="preserve"><use xlink:href="#B" class="B"/></svg><svg x="743" y="1370" width="57" height="57" viewBox="0 0 4 4" xml:space="preserve"><use xlink:href="#B" class="B"/></svg><svg x="914" y="1370" width="57" height="57" viewBox="0 0 4 4" xml:space="preserve"><use xlink:href="#B" class="B"/></svg><svg x="971" y="1370" width="57" height="57" viewBox="0 0 4 4" xml:space="preserve"><use xlink:href="#B" class="B"/></svg><svg x="1085" y="1370" width="57" height="57" viewBox="0 0 4 4" xml:space="preserve"><use xlink:href="#B" class="B"/></svg><svg x="1199" y="1370" width="57" height="57" viewBox="0 0 4 4" xml:space="preserve"><use xlink:href="#B" class="B"/></svg><svg x="1256" y="1370" width="57" height="57" viewBox="0 0 4 4" xml:space="preserve"><use xlink:href="#B" class="B"/></svg><svg x="1313" y="1370" width="57" height="57" viewBox="0 0 4 4" xml:space="preserve"><use xlink:href="#B" class="B"/></svg><svg x="1541" y="1370" width="57" height="57" viewBox="0 0 4 4" xml:space="preserve"><use xlink:href="#B" class="B"/></svg><svg x="1655" y="1370" width="57" height="57" viewBox="0 0 4 4" xml:space="preserve"><use xlink:href="#B" class="B"/></svg><svg x="1028" y="1427" width="57" height="57" viewBox="0 0 4 4" xml:space="preserve"><use xlink:href="#B" class="B"/></svg><svg x="1085" y="1427" width="57" height="57" viewBox="0 0 4 4" xml:space="preserve"><use xlink:href="#B" class="B"/></svg><svg x="1199" y="1427" width="57" height="57" viewBox="0 0 4 4" xml:space="preserve"><use xlink:href="#B" class="B"/></svg><svg x="1313" y="1427" width="57" height="57" viewBox="0 0 4 4" xml:space="preserve"><use xlink:href="#B" class="B"/></svg><svg x="1427" y="1427" width="57" height="57" viewBox="0 0 4 4" xml:space="preserve"><use xlink:href="#B" class="B"/></svg><svg x="1541" y="1427" width="57" height="57" viewBox="0 0 4 4" xml:space="preserve"><use xlink:href="#B" class="B"/></svg><svg x="1655" y="1427" width="57" height="57" viewBox="0 0 4 4" xml:space="preserve"><use xlink:href="#B" class="B"/></svg><svg x="1769" y="1427" width="57" height="57" viewBox="0 0 4 4" xml:space="preserve"><use xlink:href="#B" class="B"/></svg><svg x="629" y="1484" width="57" height="57" viewBox="0 0 4 4" xml:space="preserve"><use xlink:href="#B" class="B"/></svg><svg x="857" y="1484" width="57" height="57" viewBox="0 0 4 4" xml:space="preserve"><use xlink:href="#B" class="B"/></svg><svg x="971" y="1484" width="57" height="57" viewBox="0 0 4 4" xml:space="preserve"><use xlink:href="#B" class="B"/></svg><svg x="1142" y="1484" width="57" height="57" viewBox="0 0 4 4" xml:space="preserve"><use xlink:href="#B" class="B"/></svg><svg x="1313" y="1484" width="57" height="57" viewBox="0 0 4 4" xml:space="preserve"><use xlink:href="#B" class="B"/></svg><svg x="1541" y="1484" width="57" height="57" viewBox="0 0 4 4" xml:space="preserve"><use xlink:href="#B" class="B"/></svg><svg x="1598" y="1484" width="57" height="57" viewBox="0 0 4 4" xml:space="preserve"><use xlink:href="#B" class="B"/></svg><svg x="1712" y="1484" width="57" height="57" viewBox="0 0 4 4" xml:space="preserve"><use xlink:href="#B" class="B"/></svg><svg x="629" y="1541" width="57" height="57" viewBox="0 0 4 4" xml:space="preserve"><use xlink:href="#B" class="B"/></svg><svg x="743" y="1541" width="57" height="57" viewBox="0 0 4 4" xml:space="preserve"><use xlink:href="#B" class="B"/></svg><svg x="800" y="1541" width="57" height="57" viewBox="0 0 4 4" xml:space="preserve"><use xlink:href="#B" class="B"/></svg><svg x="914" y="1541" width="57" height="57" viewBox="0 0 4 4" xml:space="preserve"><use xlink:href="#B" class="B"/></svg><svg x="971" y="1541" width="57" height="57" viewBox="0 0 4 4" xml:space="preserve"><use xlink:href="#B" class="B"/></svg><svg x="1256" y="1541" width="57" height="57" viewBox="0 0 4 4" xml:space="preserve"><use xlink:href="#B" class="B"/></svg><svg x="1313" y="1541" width="57" height="57" viewBox="0 0 4 4" xml:space="preserve"><use xlink:href="#B" class="B"/></svg><svg x="1370" y="1541" width="57" height="57" viewBox="0 0 4 4" xml:space="preserve"><use xlink:href="#B" class="B"/></svg><svg x="1427" y="1541" width="57" height="57" viewBox="0 0 4 4" xml:space="preserve"><use xlink:href="#B" class="B"/></svg><svg x="1484" y="1541" width="57" height="57" viewBox="0 0 4 4" xml:space="preserve"><use xlink:href="#B" class="B"/></svg><svg x="1541" y="1541" width="57" height="57" viewBox="0 0 4 4" xml:space="preserve"><use xlink:href="#B" class="B"/></svg><svg x="1598" y="1541" width="57" height="57" viewBox="0 0 4 4" xml:space="preserve"><use xlink:href="#B" class="B"/></svg><svg x="1655" y="1541" width="57" height="57" viewBox="0 0 4 4" xml:space="preserve"><use xlink:href="#B" class="B"/></svg><svg x="1769" y="1541" width="57" height="57" viewBox="0 0 4 4" xml:space="preserve"><use xlink:href="#B" class="B"/></svg><svg x="857" y="1598" width="57" height="57" viewBox="0 0 4 4" xml:space="preserve"><use xlink:href="#B" class="B"/></svg><svg x="1199" y="1598" width="57" height="57" viewBox="0 0 4 4" xml:space="preserve"><use xlink:href="#B" class="B"/></svg><svg x="1370" y="1598" width="57" height="57" viewBox="0 0 4 4" xml:space="preserve"><use xlink:href="#B" class="B"/></svg><svg x="1541" y="1598" width="57" height="57" viewBox="0 0 4 4" xml:space="preserve"><use xlink:href="#B" class="B"/></svg><svg x="1655" y="1598" width="57" height="57" viewBox="0 0 4 4" xml:space="preserve"><use xlink:href="#B" class="B"/></svg><svg x="1712" y="1598" width="57" height="57" viewBox="0 0 4 4" xml:space="preserve"><use xlink:href="#B" class="B"/></svg><svg x="800" y="1655" width="57" height="57" viewBox="0 0 4 4" xml:space="preserve"><use xlink:href="#B" class="B"/></svg><svg x="857" y="1655" width="57" height="57" viewBox="0 0 4 4" xml:space="preserve"><use xlink:href="#B" class="B"/></svg><svg x="914" y="1655" width="57" height="57" viewBox="0 0 4 4" xml:space="preserve"><use xlink:href="#B" class="B"/></svg><svg x="971" y="1655" width="57" height="57" viewBox="0 0 4 4" xml:space="preserve"><use xlink:href="#B" class="B"/></svg><svg x="1085" y="1655" width="57" height="57" viewBox="0 0 4 4" xml:space="preserve"><use xlink:href="#B" class="B"/></svg><svg x="1256" y="1655" width="57" height="57" viewBox="0 0 4 4" xml:space="preserve"><use xlink:href="#B" class="B"/></svg><svg x="1427" y="1655" width="57" height="57" viewBox="0 0 4 4" xml:space="preserve"><use xlink:href="#B" class="B"/></svg><svg x="1655" y="1655" width="57" height="57" viewBox="0 0 4 4" xml:space="preserve"><use xlink:href="#B" class="B"/></svg><svg x="1712" y="1655" width="57" height="57" viewBox="0 0 4 4" xml:space="preserve"><use xlink:href="#B" class="B"/></svg><svg x="1769" y="1655" width="57" height="57" viewBox="0 0 4 4" xml:space="preserve"><use xlink:href="#B" class="B"/></svg><svg x="629" y="1712" width="57" height="57" viewBox="0 0 4 4" xml:space="preserve"><use xlink:href="#B" class="B"/></svg><svg x="743" y="1712" width="57" height="57" viewBox="0 0 4 4" xml:space="preserve"><use xlink:href="#B" class="B"/></svg><svg x="800" y="1712" width="57" height="57" viewBox="0 0 4 4" xml:space="preserve"><use xlink:href="#B" class="B"/></svg><svg x="914" y="1712" width="57" height="57" viewBox="0 0 4 4" xml:space="preserve"><use xlink:href="#B" class="B"/></svg><svg x="1142" y="1712" width="57" height="57" viewBox="0 0 4 4" xml:space="preserve"><use xlink:href="#B" class="B"/></svg><svg x="1427" y="1712" width="57" height="57" viewBox="0 0 4 4" xml:space="preserve"><use xlink:href="#B" class="B"/></svg><svg x="1484" y="1712" width="57" height="57" viewBox="0 0 4 4" xml:space="preserve"><use xlink:href="#B" class="B"/></svg><svg x="1541" y="1712" width="57" height="57" viewBox="0 0 4 4" xml:space="preserve"><use xlink:href="#B" class="B"/></svg><svg x="1655" y="1712" width="57" height="57" viewBox="0 0 4 4" xml:space="preserve"><use xlink:href="#B" class="B"/></svg><svg x="629" y="1769" width="57" height="57" viewBox="0 0 4 4" xml:space="preserve"><use xlink:href="#B" class="B"/></svg><svg x="857" y="1769" width="57" height="57" viewBox="0 0 4 4" xml:space="preserve"><use xlink:href="#B" class="B"/></svg><svg x="914" y="1769" width="57" height="57" viewBox="0 0 4 4" xml:space="preserve"><use xlink:href="#B" class="B"/></svg><svg x="1199" y="1769" width="57" height="57" viewBox="0 0 4 4" xml:space="preserve"><use xlink:href="#B" class="B"/></svg><svg x="1256" y="1769" width="57" height="57" viewBox="0 0 4 4" xml:space="preserve"><use xlink:href="#B" class="B"/></svg><svg x="1370" y="1769" width="57" height="57" viewBox="0 0 4 4" xml:space="preserve"><use xlink:href="#B" class="B"/></svg><svg x="1427" y="1769" width="57" height="57" viewBox="0 0 4 4" xml:space="preserve"><use xlink:href="#B" class="B"/></svg><svg x="1484" y="1769" width="57" height="57" viewBox="0 0 4 4" xml:space="preserve"><use xlink:href="#B" class="B"/></svg><svg x="1541" y="1769" width="57" height="57" viewBox="0 0 4 4" xml:space="preserve"><use xlink:href="#B" class="B"/></svg><svg x="1655" y="1769" width="57" height="57" viewBox="0 0 4 4" xml:space="preserve"><use xlink:href="#B" class="B"/></svg><svg x="1712" y="1769" width="57" height="57" viewBox="0 0 4 4" xml:space="preserve"><use xlink:href="#B" class="B"/></svg><svg x="173" y="173" width="399" height="399" viewBox="0 0 699.988 699.986" xml:space="preserve"><use xlink:href="#C" class="B"/></svg><svg x="173" y="173" width="399" height="399" viewBox="0 0 699.988 699.988" xml:space="preserve"><use xlink:href="#D" class="B"/></svg><svg x="1427" y="173" width="399" height="399" viewBox="0 0 699.988 699.986" xml:space="preserve"><use xlink:href="#C" class="B"/></svg><svg x="1427" y="173" width="399" height="399" viewBox="0 0 699.988 699.988" xml:space="preserve"><use xlink:href="#D" class="B"/></svg><svg x="173" y="1427" width="399" height="399" viewBox="0 0 699.988 699.986" xml:space="preserve"><use xlink:href="#C" class="B"/></svg><svg x="173" y="1427" width="399" height="399" viewBox="0 0 699.988 699.988" xml:space="preserve"><use xlink:href="#D" class="B"/></svg></svg><defs ><path id="B" d="M.25.25h3.5v3.5H.25z"/><path id="C" d="M600.99 0H1v699.99h699.99V0h-99.998zm0 200v399.99H101V100h499.99v99.998z"/><path id="D" d="M399.99 200h0H300 200v99.99 100 100h100 99.99 0 100v-100-100V200z"/></defs></svg>